# xmcd
#
# Track frame offsets: 
#        150
#        20727
#        36111
#        52290
#        73332
#        90518
#        107743
#        121130
#        129291
#        139525
#        150343
#        172064
#        189651
#        209183
#
# Disc length: 2994 seconds
#
# Revision: 1
# Processed by: cddbd v1.5.2PL0 Copyright (c) Steve Scherf et al.
# Submitted via: ExactAudioCopyFreeDBPlugin 1.0
#
DISCID=cd0bb00e
DTITLE=Ritarikunta - RK - Kroonisesti Akuutti
DYEAR=2005
DGENRE=Rap
TTITLE0=Ei Enemp‰‰, Ei V‰hemp‰‰
TTITLE1=Stressii
TTITLE2=Viikonlopputurnajaiset - Samaa Rataa (feat. Pietari)
TTITLE3=N‰in Sut Nilkki
TTITLE4=Mukamasmaailma
TTITLE5=V‰kisinki Flippaa (feat. Jodarok)
TTITLE6=Addikti
TTITLE7=J‰‰hyv‰iset
TTITLE8=Versio
TTITLE9=Mit‰ Kuuluu (Jesse J Remix)
TTITLE10=Tauko
TTITLE11=Kroonisesti Akuutti
TTITLE12=Ei Oo Iisii (Kilari Remix)
TTITLE13=Mata Isure
EXTD=
EXTT0=
EXTT1=
EXTT2=feat. Pietari
EXTT3=
EXTT4=
EXTT5=feat. Jodarok
EXTT6=
EXTT7=
EXTT8=
EXTT9=
EXTT10=
EXTT11=
EXTT12=
EXTT13=
PLAYORDER=
